<svg width="528" height="528" viewBox="0 0 528 528" fill="none" xmlns="http://www.w3.org/2000/svg">
<path d="M0 264C0 23.7602 23.7603 0 264 0C504.24 0 528 23.7602 528 264C528 504.24 504.24 528 264 528C23.7603 528 0 504.24 0 264" fill="#F6F7FF"/>
<path d="M277.593 207.478C251.669 207.478 228.598 216.923 209.708 231.976V91.8261H125.097L103.304 156.809H144.675V436.174H212.807V295.04C222.498 280.479 239.961 266.656 263.967 266.656C293.089 266.656 314.389 283.628 314.389 328.491V436.174H382.275V328.491C382.275 241.421 330.623 207.478 277.495 207.478H277.593Z" fill="#0A23B9"/>
<path d="M293.722 151.739L312.157 96.6799H376.483L357.901 151.739H293.722Z" fill="#14FFAF"/>
<path d="M369.717 101.534L354.42 146.934H300.439L315.638 101.534H369.717M383.2 91.8261H308.676L286.956 156.593H361.382L383.2 91.8261V91.8261Z" fill="#0A23B9"/>
</svg>
